<?xml version="1.0" encoding="utf-8"?>
<!-- Generator: Adobe Illustrator 15.0.2, SVG Export Plug-In . SVG Version: 6.00 Build 0)  -->
<!DOCTYPE svg PUBLIC "-//W3C//DTD SVG 1.1//EN" "http://www.w3.org/Graphics/SVG/1.1/DTD/svg11.dtd">
<svg version="1.1" id="Layer_1" xmlns="http://www.w3.org/2000/svg" xmlns:xlink="http://www.w3.org/1999/xlink" x="0px" y="0px"
	 width="432px" height="288px" viewBox="0 0 432 288" enable-background="new 0 0 432 288" xml:space="preserve">
<rect x="70.53" y="109.459" fill="none" width="291.017" height="70.804"/>
<rect x="70.53" y="108.459" fill="none" width="291.017" height="70.805"/>
<g>
	<path fill="#0079AB" d="M125.735,155.428c0-4.659,2.758-7.223,7.77-7.223c4.317,0,6.455,1.624,6.534,4.958
		c-0.131,0-3.662-0.03-3.77-0.03c0-0.021,0.001-0.099,0.001-0.099c0-0.967-0.095-2.353-0.914-3.188
		c-0.479-0.485-1.153-0.733-2.011-0.733c-2.253,0-3.708,2.046-3.708,5.214c0,4.129,2.162,8.294,6.995,8.294
		c0.984,0,2.026-0.174,3.176-0.524c-0.003,0.139-0.029,0.981-0.031,1.059c-1.658,0.481-3.274,0.728-4.807,0.728
		C129.014,163.882,125.735,160.88,125.735,155.428z"/>
	<path fill="#0079AB" d="M187.489,160.092c0-1.34-1.675-2.131-3.619-3.049c-2.294-1.079-4.892-2.305-4.892-4.628
		c0-2.638,2.387-4.21,6.384-4.21c1.865,0,3.514,0.398,4.234,0.572c0,0.035-0.022,2.036-0.022,2.225
		c-1.294-0.699-2.71-1.371-4.528-1.371c-1.453,0-2.917,0.571-2.917,1.844c0,1.342,1.638,2.095,3.536,2.967
		c2.387,1.097,5.092,2.338,5.092,5.003c0,2.821-2.53,4.438-6.939,4.438c-2.443,0-4.146-0.45-4.825-0.635
		c0.001-0.091,0.021-2.3,0.022-2.497c1.168,0.701,2.954,1.515,5.002,1.515C186.581,162.265,187.489,161.095,187.489,160.092z"/>
	<path fill="#0079AB" d="M105.106,144.835c0-0.49-0.006-0.89-0.014-1.214c0-0.684,0-1.101,0-1.123c-0.002,0-0.028,0-0.061,0v-0.002
		h-7.883v0.002c-0.004,0-0.01,0-0.011,0c-0.001,0.022,0.004,0.055,0.011,0.09v0.365c0.89,0,2.096-0.08,2.96,0.253
		c0.679,0.371,1.082,1.044,1.082,2.276l0.002,11.922c0,2.423-0.305,4.597-3.986,4.597c-1.73,0-3.055-0.487-3.618-0.738
		c-0.001,0.176-0.022,2.246-0.022,2.297c1.029,0.216,2.167,0.322,3.481,0.322c7.426,0,8.048-3.201,8.048-6.479
		c0,0-0.001-5.681-0.002-10.028L105.106,144.835z"/>
	<path fill="#0079AB" d="M169.568,148.205c-3.027,0-4.254,1.434-5.064,2.384c0,0-0.038,0.041-0.045,0.047l-0.098,0.09l-0.364-0.112
		c0,0,0.002-3.831,0.002-6.174l0.004-1.32v-0.457h-4.928c-1.098-0.011-2.592-0.022-2.664-0.024c-0.003,0.021,0.003,0.054,0.01,0.086
		v0.396c0.944,0,2.238-0.093,3.108,0.318c0.536,0.354,0.869,0.943,0.921,1.918v10.753c0,3.76,0.603,7.773,7.811,7.773
		c5.343,0,8.167-2.687,8.167-7.773C176.429,151.013,173.993,148.205,169.568,148.205z M168.262,162.976h-0.002
		c-3.417-0.035-4.103-2.654-4.103-6.867c0-2.418,0.534-6.478,4.105-6.478c3.848,0,4.264,4.53,4.264,6.478
		C172.526,158.672,171.97,162.976,168.262,162.976z"/>
	<path fill="#0079AB" d="M149.735,148.205c-5.291,0-8.087,2.711-8.087,7.837c0,5.13,2.796,7.84,8.087,7.84
		c5.316,0,8.127-2.71,8.127-7.84C157.863,150.916,155.052,148.205,149.735,148.205z M149.735,162.979
		c-2.816,0-4.186-2.268-4.186-6.934c0-4.662,1.369-6.93,4.186-6.93c4.225,0,4.225,5.216,4.225,6.93
		C153.96,157.763,153.96,162.979,149.735,162.979z"/>
	<path fill="#0079AB" d="M116.046,148.205c-5.704,0-6.767,2.271-7.026,4.278c0.129,0.002,3.659,0.028,3.769,0.028
		c0.103-1.141,0.352-3.399,3.257-3.399c2.879,0,2.879,2.94,2.879,4.7l-0.04,1.577l-0.06,0.002c0,0-0.251,0.009-0.25,0.009
		c-2.518,0.095-10.181,0.388-10.181,4.854c0,2.068,2.114,3.628,4.919,3.628c3.059,0,4.619-1.688,5.15-2.414l0.081-0.112l0.379,0.121
		c0,0-0.031,1.932-0.034,2.051c0.119,0.002,3.461,0.032,3.578,0.032c0-0.128,0-9.751,0-9.751
		C122.47,150.857,121.981,148.205,116.046,148.205z M118.794,158.332c0,2.701-2.592,3.823-3.98,3.823
		c-1.411,0-2.395-0.987-2.395-2.397c0-2.02,2.181-3.161,6.309-3.304l0.066-0.004V158.332z"/>
</g>
<g>
	<path fill="#D35C5A" d="M173.36,135.443v-11.107c0-1.801-1.183-1.971-3.118-1.971v-0.48h8.388c5.954,0,12.264,0.863,12.264,8.027
		c0,7.145-6.632,7.982-12.264,7.982h-5.241L173.36,135.443z M176.55,134.939c0,1.756,0.29,2.02,2.08,2.02
		c6.169,0,8.714-2.213,8.714-7.047c0-4.422-1.899-7.092-8.714-7.092c-1.79,0-2.08,0.145-2.08,2.021V134.939z"/>
	<path fill="#D35C5A" d="M135.461,124.336v8.006c0,3.295-0.721,5.795-8.177,5.795c-7.421,0-8.567-2.406-8.567-5.795v-8.006
		c0-1.801-1.149-1.971-3.121-1.971v-0.48h6.295v0.48c0,0,0.017,0.17,0.017,1.971v8.006c0,2.453,0.858,4.857,5.52,4.857
		c5.164,0,5.989-1.994,5.989-4.857v-8.006c0-1.801-1.185-1.971-3.119-1.971v-0.48h5.213L135.461,124.336z"/>
	<path fill="#D35C5A" d="M149.25,137.057c-7.851,0-8.854-4.787-8.854-7.889c0-2.473,0.464-6.588,6.238-6.588
		c4.445,0,5.879,2.166,6.346,3.51h0.898l-0.324-3.771c-1.578-0.289-4.015-0.674-6.884-0.674c-7.674,0-9.826,3.268-9.826,7.719
		c0,5.119,3.444,8.773,10.614,8.773c2.082,0,3.766-0.133,5.245-0.4v-1C151.877,136.908,150.794,137.057,149.25,137.057z"/>
	<path fill="#D35C5A" d="M165.633,129.266c-3.276-1.227-7.756-1.924-7.756-4.064c0-1.586,2.219-2.621,4.741-2.621
		c4.029,0,5.536,1.494,5.874,2.768h0.941l-0.264-3.295c-1.694-0.215-3.311-0.408-5.834-0.408c-4.744,0-8.471,1.176-8.471,4.061
		c0,1.539,0.79,2.406,2.448,3.225c3.502,1.707,9.748,2.5,9.748,5.096c0,1.66-2.147,3.031-5.455,3.031c-0.354,0-0.687-0.014-1-0.035
		c-0.999,0.035-3.23-0.186-4.946-0.438v1.186c1.33,0.141,3.616,0.367,5.641,0.367c5.159,0,9.303-1.441,9.303-4.498
		C170.604,131.357,168.608,130.371,165.633,129.266z"/>
	<g>
		<g>
			<g>
				<polygon fill="#D35C5A" points="95.632,122.158 106.289,122.158 106.289,123.771 101.989,123.771 102.562,123.1 95.68,123.1 
									"/>
				<polygon fill="#D35C5A" points="92.34,124.352 109.882,124.352 109.882,125.965 102.855,125.965 103.429,125.295 
					92.387,125.295 				"/>
				<polygon fill="#D35C5A" points="88.037,126.525 113.754,126.525 113.754,128.139 103.713,128.139 104.288,127.467 
					88.085,127.467 				"/>
				<path fill="#D35C5A" d="M84.452,128.711H114.9l-0.144,1.457c0,0-8.828-0.014-11.423,3.945L84.452,128.711z"/>
				<path fill="#D35C5A" d="M84.713,129.973c0,0,30.958,7.002,23.125,8.596l-14.031-4.219
					C101.901,134.816,84.713,129.973,84.713,129.973"/>
			</g>
		</g>
	</g>
</g>
<g>
	<path fill="#0079AB" d="M216.733,135.896c0.982,0.527,2.525,1.03,4.111,1.03c1.704,0,2.607-0.707,2.607-1.787
		c0-1.008-0.783-1.602-2.747-2.293c-2.736-0.971-4.525-2.463-4.525-4.858c0-2.798,2.349-4.924,6.206-4.924
		c1.87,0,3.221,0.371,4.188,0.825l-0.819,2.975c-0.65-0.311-1.832-0.779-3.425-0.779c-1.615,0-2.386,0.748-2.386,1.588
		c0,1.041,0.908,1.502,3.037,2.306c2.904,1.086,4.249,2.593,4.249,4.913c0,2.738-2.098,5.089-6.613,5.089
		c-1.859,0-3.72-0.505-4.634-1.02L216.733,135.896z"/>
	<path fill="#0079AB" d="M238.076,139.426c-0.667,0.309-1.909,0.554-3.317,0.554c-3.851,0-6.302-2.356-6.302-6.098
		c0-3.482,2.383-6.329,6.812-6.329c0.979,0,2.054,0.177,2.826,0.469l-0.577,2.752c-0.446-0.199-1.097-0.379-2.072-0.379
		c-1.958,0-3.215,1.39-3.2,3.338c0,2.188,1.469,3.35,3.261,3.35c0.885,0,1.564-0.156,2.134-0.389L238.076,139.426z"/>
	<path fill="#0079AB" d="M239.619,122.442h3.709v6.803h0.049c0.388-0.521,0.876-0.946,1.45-1.229
		c0.563-0.299,1.241-0.473,1.928-0.473c2.364,0,4.174,1.639,4.174,5.23v6.951h-3.709v-6.545c0-1.568-0.54-2.641-1.914-2.641
		c-0.988,0-1.594,0.632-1.857,1.309c-0.094,0.223-0.12,0.541-0.12,0.81v7.067h-3.709V122.442z"/>
	<path fill="#0079AB" d="M258.91,137.346c-1.554,0-2.413-1.543-2.413-3.576c0-1.766,0.675-3.581,2.44-3.581
		c1.678,0,2.355,1.806,2.355,3.562c0,2.149-0.914,3.595-2.358,3.595H258.91z M258.88,139.992c3.171,0,6.254-1.99,6.254-6.344
		c0-3.598-2.422-6.105-6.064-6.105c-3.829,0-6.365,2.467-6.365,6.311c0,3.848,2.686,6.139,6.151,6.139H258.88z"/>
	<path fill="#0079AB" d="M272.525,137.346c-1.554,0-2.413-1.543-2.413-3.576c0-1.766,0.675-3.581,2.44-3.581
		c1.678,0,2.355,1.806,2.355,3.562c0,2.149-0.914,3.595-2.358,3.595H272.525z M272.495,139.992c3.171,0,6.254-1.99,6.254-6.344
		c0-3.598-2.422-6.105-6.064-6.105c-3.829,0-6.365,2.467-6.365,6.311c0,3.848,2.686,6.139,6.151,6.139H272.495z"/>
	<path fill="#0079AB" d="M280.544,122.442h3.709v17.282h-3.709V122.442z"/>
	<path fill="#0079AB" d="M296.439,137.346c-1.554,0-2.412-1.543-2.412-3.576c0-1.766,0.674-3.581,2.44-3.581
		c1.678,0,2.354,1.806,2.354,3.562c0,2.149-0.914,3.595-2.358,3.595H296.439z M296.41,139.992c3.17,0,6.254-1.99,6.254-6.344
		c0-3.598-2.423-6.105-6.065-6.105c-3.828,0-6.364,2.467-6.364,6.311c0,3.848,2.686,6.139,6.151,6.139H296.41z"/>
	<path fill="#0079AB" d="M304.887,139.725v-9.182h-1.575v-2.732h1.575v-0.451c0-1.432,0.438-3.012,1.496-3.994
		c0.939-0.88,2.211-1.19,3.298-1.19c0.812,0,1.447,0.108,1.963,0.253l-0.149,2.84c-0.324-0.098-0.701-0.17-1.197-0.17
		c-1.217,0-1.729,0.956-1.729,2.108v0.604h2.384v2.732h-2.355v9.182H304.887z"/>
	<path fill="#0079AB" d="M226.357,156.794h-6.036v3.901h6.748v3.038h-10.457v-16.405h10.106v3.039h-6.397v3.417h6.036V156.794z"/>
	<path fill="#0079AB" d="M229.021,155.626c0-1.484-0.046-2.738-0.097-3.806h3.212l0.172,1.65h0.077
		c0.48-0.768,1.693-1.918,3.682-1.918c2.434,0,4.264,1.622,4.264,5.129v7.052h-3.709v-6.603c0-1.535-0.548-2.586-1.884-2.586
		c-1.019,0-1.622,0.714-1.878,1.399c-0.095,0.231-0.13,0.584-0.13,0.915v6.874h-3.709V155.626z"/>
	<path fill="#0079AB" d="M250.355,158.43c0,0.308-0.025,0.698-0.106,0.98c-0.245,0.864-1.008,1.495-1.966,1.495
		c-1.539,0-2.417-1.388-2.417-3.162c0-2.16,1.075-3.392,2.423-3.392c1.029,0,1.737,0.66,1.992,1.64
		c0.052,0.202,0.074,0.447,0.074,0.685V158.43z M254.06,155.371c0-1.775,0.046-2.781,0.102-3.551h-3.216l-0.124,1.424h-0.049
		c-0.604-0.979-1.626-1.691-3.263-1.691c-2.923,0-5.397,2.433-5.397,6.276c0,3.41,2.099,5.799,5.036,5.799
		c1.372,0,2.516-0.562,3.216-1.537h0.049v0.766c0,2.2-1.339,3.137-3.091,3.137c-1.396,0-2.704-0.464-3.45-0.893l-0.735,2.808
		c1.065,0.591,2.71,0.912,4.282,0.912c1.753,0,3.524-0.331,4.829-1.462c1.351-1.195,1.812-3.068,1.812-5.357V155.371z"/>
	<path fill="#0079AB" d="M256.527,163.733V151.82h3.71v11.913H256.527z M258.351,150.271c-1.244,0-2.057-0.871-2.052-1.979
		c-0.005-1.12,0.825-1.97,2.085-1.97c1.269,0,2.068,0.846,2.082,1.97c0.005,1.108-0.81,1.979-2.091,1.979H258.351z"/>
	<path fill="#0079AB" d="M262.711,155.626c0-1.484-0.046-2.738-0.097-3.806h3.212l0.172,1.65h0.077
		c0.48-0.768,1.693-1.918,3.682-1.918c2.434,0,4.265,1.622,4.265,5.129v7.052h-3.709v-6.603c0-1.535-0.549-2.586-1.885-2.586
		c-1.019,0-1.622,0.714-1.878,1.399c-0.095,0.231-0.13,0.584-0.13,0.915v6.874h-3.709V155.626z"/>
	<path fill="#0079AB" d="M279.3,156.431c0.103-0.985,0.736-2.415,2.302-2.415c1.685,0,2.083,1.523,2.077,2.415H279.3z
		 M286.988,158.968c0.065-0.274,0.133-0.821,0.133-1.467c0-2.947-1.459-5.948-5.319-5.948c-4.117,0-6.005,3.347-6.005,6.374
		c0,3.712,2.317,6.062,6.353,6.062c1.598,0,3.084-0.251,4.316-0.753l-0.5-2.506c-0.999,0.337-2.025,0.505-3.278,0.505
		c-1.728,0-3.247-0.73-3.357-2.268H286.988z"/>
	<path fill="#0079AB" d="M291.657,156.431c0.104-0.985,0.736-2.415,2.302-2.415c1.686,0,2.084,1.523,2.077,2.415H291.657z
		 M299.346,158.968c0.065-0.274,0.133-0.821,0.133-1.467c0-2.947-1.458-5.948-5.319-5.948c-4.117,0-6.005,3.347-6.005,6.374
		c0,3.712,2.317,6.062,6.354,6.062c1.597,0,3.083-0.251,4.315-0.753l-0.499-2.506c-1,0.337-2.026,0.505-3.278,0.505
		c-1.729,0-3.247-0.73-3.357-2.268H299.346z"/>
	<path fill="#0079AB" d="M301.19,155.747c0-1.749-0.032-2.9-0.098-3.927h3.183l0.135,2.205h0.091
		c0.612-1.742,2.062-2.473,3.216-2.473c0.342,0,0.516,0.008,0.791,0.068v3.483c-0.286-0.061-0.585-0.104-1.001-0.104
		c-1.36,0-2.29,0.722-2.539,1.881c-0.046,0.234-0.068,0.523-0.068,0.824v6.027h-3.709V155.747z"/>
	<path fill="#0079AB" d="M309.911,163.733V151.82h3.709v11.913H309.911z M311.733,150.271c-1.244,0-2.057-0.871-2.052-1.979
		c-0.005-1.12,0.825-1.97,2.085-1.97c1.269,0,2.068,0.846,2.083,1.97c0.005,1.108-0.811,1.979-2.092,1.979H311.733z"/>
	<path fill="#0079AB" d="M316.095,155.626c0-1.484-0.046-2.738-0.098-3.806h3.213l0.171,1.65h0.078
		c0.48-0.768,1.692-1.918,3.681-1.918c2.434,0,4.265,1.622,4.265,5.129v7.052h-3.709v-6.603c0-1.535-0.548-2.586-1.884-2.586
		c-1.02,0-1.622,0.714-1.879,1.399c-0.095,0.231-0.129,0.584-0.129,0.915v6.874h-3.709V155.626z"/>
	<path fill="#0079AB" d="M337.428,158.43c0,0.308-0.024,0.698-0.106,0.98c-0.244,0.864-1.008,1.495-1.966,1.495
		c-1.539,0-2.416-1.388-2.416-3.162c0-2.16,1.075-3.392,2.423-3.392c1.029,0,1.736,0.66,1.991,1.64
		c0.053,0.202,0.074,0.447,0.074,0.685V158.43z M341.132,155.371c0-1.775,0.046-2.781,0.103-3.551h-3.216l-0.125,1.424h-0.049
		c-0.604-0.979-1.626-1.691-3.263-1.691c-2.923,0-5.397,2.433-5.397,6.276c0,3.41,2.099,5.799,5.037,5.799
		c1.372,0,2.516-0.562,3.215-1.537h0.049v0.766c0,2.2-1.339,3.137-3.091,3.137c-1.395,0-2.703-0.464-3.45-0.893l-0.735,2.808
		c1.066,0.591,2.711,0.912,4.283,0.912c1.752,0,3.523-0.331,4.828-1.462c1.351-1.195,1.812-3.068,1.812-5.357V155.371z"/>
</g>
<line fill="#D35C5A" stroke="#D35C5A" x1="203.536" y1="121.197" x2="203.536" y2="164.699"/>
</svg>
